<svg xmlns="http://www.w3.org/2000/svg" viewBox="0 0 194.18 67.66"><defs><style>.cls-1{fill:#231f20;}</style></defs><title>full-logo-black</title><g id="Layer_2" data-name="Layer 2"><g id="Layer_1-2" data-name="Layer 1"><path class="cls-1" d="M60.13,34.25c-1-4.59-5.41-8.61-9.51-8.62h0a12.35,12.35,0,0,0-9.32,3.64A39.29,39.29,0,0,0,41.84,23c0-8.73-7-17.36-7.24-17.72a1,1,0,0,0-1.54,0c-.3.36-7.25,9-7.25,17.72a39.66,39.66,0,0,0,.55,6.34A12.26,12.26,0,0,0,17,25.63c-4.1,0-8.54,4-9.51,8.61-.47,2.19-.71,7.67,7,11.08a1,1,0,0,0,1.06-.16,1,1,0,0,0,.3-1c-.85-2.93-1.7-6.45-.74-7.72.12-.17.51-.68,2-.68h.05c3.09,0,4.84,1.44,5.68,4.59,0,0,0,0,0,0v8.41c0,.51,0,1.48-2.06,1.48A3.3,3.3,0,0,1,19.46,49,2,2,0,0,1,19,47.66a1.1,1.1,0,0,0-.45-1.24,1,1,0,0,0-1.15.09c-.64.54-1,3.8-.16,6,.64,1.78,2.24,3.9,6.18,3.9,3.05,0,4.95-2.07,6.11-4A22,22,0,0,0,33,61.53a1,1,0,0,0,.88.51,1,1,0,0,0,.89-.55v0a22.09,22.09,0,0,0,3.37-9c1.16,2,3.06,4,6.11,4h0c3.94,0,5.54-2.11,6.18-3.89.82-2.25.49-5.5-.16-6a1,1,0,0,0-1.14-.1,1.11,1.11,0,0,0-.46,1.25A2,2,0,0,1,48.18,49a3.41,3.41,0,0,1-1.39,1.22c-2,0-2.07-.9-2.09-1.4,0,0,0,0,0-.06V40.33c.84-3.15,2.59-4.56,5.68-4.58,1.52,0,2,.51,2.1.68,1,1.26.11,4.79-.75,7.71a1,1,0,0,0,1,1.28.93.93,0,0,0,.4-.09C60.84,41.91,60.59,36.44,60.13,34.25ZM42.72,47.78H24.93V41.05H42.72ZM33.83,7.52c1.78,2.48,6,9.06,6,15.44,0,6.9-2.43,14-3.21,16.1H31c-.78-2.11-3.21-9.2-3.21-16.1C27.79,16.59,32.05,10,33.83,7.52ZM17.26,33.75H17.2a4.24,4.24,0,0,0-3.64,1.47c-1.15,1.52-1,4-.18,7.25-3.19-2-4.57-4.71-3.91-7.82.77-3.68,4.38-7,7.56-7,9.46,0,11.11,8.4,11.42,11.44H24.6A7.18,7.18,0,0,0,17.26,33.75Zm6.17,20.71a4.3,4.3,0,0,1-3.77-1.56A4.5,4.5,0,0,1,19,51.39a3.22,3.22,0,0,0,1.88.84c2.72,0,3.64-1.35,3.94-2.46h3.88C27.87,51.58,26.32,54.46,23.43,54.46Zm10.39,4.67a21,21,0,0,1-2.49-9.36h5A21.27,21.27,0,0,1,33.82,59.13Zm13-6.9a3.22,3.22,0,0,0,1.88-.84A4.41,4.41,0,0,1,48,52.9a4.3,4.3,0,0,1-3.77,1.56h0c-2.89,0-4.44-2.88-5.24-4.69h3.87C43.15,50.88,44.07,52.23,46.79,52.23Zm7.48-9.75c.8-3.25,1-5.73-.18-7.26a4.33,4.33,0,0,0-3.7-1.46A7.2,7.2,0,0,0,43,39.06H39.1a17.39,17.39,0,0,1,.31-1.92c.22-.69.45-1.46.68-2.31,1.28-3.41,4.15-7.2,10.53-7.2h0c3.18,0,6.78,3.35,7.56,7C58.84,37.77,57.46,40.49,54.27,42.48Z"/><path class="cls-1" d="M35.24,18l.86-.86a1,1,0,0,0,0-1.41,1,1,0,0,0-1.42,0l-.86.86L33,15.71a1,1,0,0,0-1.41,1.41l.86.86-.86.86a1,1,0,0,0,.71,1.71,1,1,0,0,0,.7-.3l.86-.86.86.86a1,1,0,1,0,1.42-1.41Z"/><path class="cls-1" d="M35.24,24.33l.86-.86a1,1,0,1,0-1.42-1.42l-.86.86L33,22.05a1,1,0,0,0-1.41,0,1,1,0,0,0,0,1.42l.86.86-.86.86a1,1,0,0,0,0,1.41,1,1,0,0,0,.71.29,1,1,0,0,0,.7-.29l.86-.86.86.86a1,1,0,0,0,1.42,0,1,1,0,0,0,0-1.41Z"/><path class="cls-1" d="M35.24,30.75l.86-.86a1,1,0,0,0-1.42-1.42l-.86.86L33,28.47a1,1,0,0,0-1.41,0,1,1,0,0,0,0,1.42l.86.86-.86.85a1,1,0,0,0,0,1.42,1,1,0,0,0,.71.29A1,1,0,0,0,33,33l.86-.86.86.86a1,1,0,0,0,1.42,0,1,1,0,0,0,0-1.42Z"/><path class="cls-1" d="M33.83,67.66A33.83,33.83,0,1,1,67.66,33.83,33.87,33.87,0,0,1,33.83,67.66ZM33.83,2A31.83,31.83,0,1,0,65.66,33.83,31.87,31.87,0,0,0,33.83,2Z"/><path class="cls-1" d="M87.86,19l-.5,2.61-.46.18a7,7,0,0,0-1.46-.75,3.67,3.67,0,0,0-1.26-.27,1.48,1.48,0,0,0-1,.32.92.92,0,0,0-.37.73,1,1,0,0,0,.47.82,10,10,0,0,0,1.48.8,14.89,14.89,0,0,1,1.74.91,3.87,3.87,0,0,1,1.15,1.1,2.81,2.81,0,0,1,.49,1.69,3.54,3.54,0,0,1-.6,2,4.13,4.13,0,0,1-1.72,1.43,5.82,5.82,0,0,1-2.57.53,10,10,0,0,1-3.84-.77l.44-2.78.33-.19a6.41,6.41,0,0,0,1.75,1.05,4.83,4.83,0,0,0,1.64.37,1.64,1.64,0,0,0,1.11-.33,1,1,0,0,0,.37-.76,1,1,0,0,0-.48-.87,9,9,0,0,0-1.49-.8,14.17,14.17,0,0,1-1.7-.9,3.84,3.84,0,0,1-1.14-1.1,2.88,2.88,0,0,1-.48-1.69,3.64,3.64,0,0,1,.6-2A4.11,4.11,0,0,1,82,18.9a5.61,5.61,0,0,1,2.48-.52A9.3,9.3,0,0,1,87.86,19Z"/><path class="cls-1" d="M95.69,22.24l-.5,2.38-.23.09a7.55,7.55,0,0,0-.89-.36,2.43,2.43,0,0,0-.74-.12,1.38,1.38,0,0,0-1.16.52,2.55,2.55,0,0,0-.39,1.54q0,2.49,1.74,2.49a5.42,5.42,0,0,0,1.79-.4l.23.17-.31,2.28a8.6,8.6,0,0,1-2.38.33A3.66,3.66,0,0,1,89.93,30a5,5,0,0,1-1.05-3.37,5,5,0,0,1,1.17-3.54,4.22,4.22,0,0,1,3.28-1.27A5.71,5.71,0,0,1,95.69,22.24Z"/><path class="cls-1" d="M103.8,22.93a4.79,4.79,0,0,1,1.06,3.36,5.19,5.19,0,0,1-1.14,3.62,4.23,4.23,0,0,1-3.31,1.25A4,4,0,0,1,97.31,30a4.75,4.75,0,0,1-1.06-3.34A5.24,5.24,0,0,1,97.39,23a4.26,4.26,0,0,1,3.31-1.25A4,4,0,0,1,103.8,22.93Zm-4.4,1.41a3.6,3.6,0,0,0-.31,1.77A9.59,9.59,0,0,0,99.23,28a1.7,1.7,0,0,0,.48.94,1.43,1.43,0,0,0,.91.28,1.16,1.16,0,0,0,1.07-.51,3.66,3.66,0,0,0,.32-1.8,5.83,5.83,0,0,0-.34-2.37,1.21,1.21,0,0,0-1.18-.66A1.2,1.2,0,0,0,99.4,24.34Z"/><path class="cls-1" d="M115.15,29l-.27,1.59a3,3,0,0,1-1.65.52,2.05,2.05,0,0,1-1.54-1.51h-.19a5.53,5.53,0,0,1-2.24,1.45,3.3,3.3,0,0,1-2.21-.66,2.36,2.36,0,0,1-.77-1.89l.06-2.15-.1-4.2,2.92-.23,0,5.47c0,.83.32,1.25,1,1.25a1.58,1.58,0,0,0,.65-.14,2.55,2.55,0,0,0,.67-.44V22.16l2.88-.23-.17,6.49a.62.62,0,0,0,.09.38.3.3,0,0,0,.27.12,1.59,1.59,0,0,0,.43-.08Z"/><path class="cls-1" d="M121.69,28.44l.21.23-.29,1.74a5.46,5.46,0,0,1-2,.67,3.33,3.33,0,0,1-2.13-.73,2.34,2.34,0,0,1-.73-1.82l.1-1.74,0-2.94h-1.19l-.1-.15.14-1.65h1.13V20.51l2.78-.82.21.19-.08,2.17h2.11l.1.17-.13,1.63h-2.13l-.12,3.88a1.15,1.15,0,0,0,.2.77.92.92,0,0,0,.7.22A3,3,0,0,0,121.69,28.44Z"/><path class="cls-1" d="M125.86,17.77a1.5,1.5,0,0,1,.4,1.11,1.69,1.69,0,0,1-.44,1.22,1.58,1.58,0,0,1-1.17.45,1.48,1.48,0,0,1-1.12-.4,1.61,1.61,0,0,1-.38-1.13,1.65,1.65,0,0,1,.43-1.2,1.53,1.53,0,0,1,1.18-.46A1.46,1.46,0,0,1,125.86,17.77Zm-2.56,9.51-.09-5.12,3-.23L126.09,27l.11,4h-3Z"/><path class="cls-1" d="M133.76,25.6c0-.89-.33-1.33-1.07-1.33a2.48,2.48,0,0,0-1.46.58V27l.13,4h-3l.14-3.67-.12-5.12,2.9-.23v1.33h.11a6.23,6.23,0,0,1,2.3-1.41,3.25,3.25,0,0,1,2.2.67,2.31,2.31,0,0,1,.74,1.89L136.52,27l.12,4h-3Z"/><path class="cls-1" d="M146.17,23.6l0,.08a2.6,2.6,0,0,1,.25,1.15,2.81,2.81,0,0,1-1.1,2.32,4.64,4.64,0,0,1-3,.86,7.09,7.09,0,0,1-1.1-.07.65.65,0,0,0-.19.38c0,.22.14.37.42.44a9.65,9.65,0,0,0,1.42.23,16.46,16.46,0,0,1,1.95.32,2.9,2.9,0,0,1,1.33.7,1.89,1.89,0,0,1,.56,1.46,2.76,2.76,0,0,1-.56,1.68,3.74,3.74,0,0,1-1.6,1.15,6.39,6.39,0,0,1-2.37.41,4.86,4.86,0,0,1-2.82-.71,2.22,2.22,0,0,1-1-1.9,6.27,6.27,0,0,1,1.55-1.34v-.1a2.27,2.27,0,0,1-1-.69,1.75,1.75,0,0,1-.35-1.15,6.53,6.53,0,0,1,1.36-1.17v-.12a2.56,2.56,0,0,1-1.11-1,3,3,0,0,1-.37-1.5,2.87,2.87,0,0,1,1.09-2.36,4.66,4.66,0,0,1,3-.86,5.41,5.41,0,0,1,2,.36,17.66,17.66,0,0,0,2.81-.82l.21.17v1.86A8.78,8.78,0,0,1,146.17,23.6Zm-2.52,7.77a9.81,9.81,0,0,0-1.64-.31l-.57,0a1.28,1.28,0,0,0-.66,1,.86.86,0,0,0,.43.75,2.31,2.31,0,0,0,1.26.28,2.58,2.58,0,0,0,1.26-.25.81.81,0,0,0,.45-.76A.66.66,0,0,0,143.65,31.37Zm.13-6.46a1.24,1.24,0,0,0-.32-.95,1.4,1.4,0,0,0-1-.3,1.54,1.54,0,0,0-1.06.3,1.14,1.14,0,0,0-.34.93,1.39,1.39,0,0,0,.33,1,1.29,1.29,0,0,0,1,.34C143.32,26.25,143.78,25.8,143.78,24.91Z"/><path class="cls-1" d="M160.62,20a6.47,6.47,0,0,1,1.44,4.5,7.13,7.13,0,0,1-1.57,4.94,5.62,5.62,0,0,1-4.43,1.76A5.15,5.15,0,0,1,152,29.54a6.69,6.69,0,0,1-1.44-4.6,7,7,0,0,1,1.56-4.85,5.71,5.71,0,0,1,4.43-1.71A5.25,5.25,0,0,1,160.62,20Zm-5.79,1.27a2.07,2.07,0,0,0-.79,1.15,7.7,7.7,0,0,0-.25,2.16A10.61,10.61,0,0,0,154,27.1a2.36,2.36,0,0,0,.8,1.34,2.5,2.5,0,0,0,1.48.4,2.56,2.56,0,0,0,1.46-.36,2,2,0,0,0,.78-1.16,8,8,0,0,0,.24-2.2,10,10,0,0,0-.25-2.54,2.26,2.26,0,0,0-.79-1.31,2.47,2.47,0,0,0-1.49-.39A2.56,2.56,0,0,0,154.83,21.23Z"/><path class="cls-1" d="M170.36,22.93a4.79,4.79,0,0,1,1.07,3.36,5.14,5.14,0,0,1-1.15,3.62A4.23,4.23,0,0,1,167,31.16,4,4,0,0,1,163.88,30a4.75,4.75,0,0,1-1.07-3.34A5.24,5.24,0,0,1,164,23a4.28,4.28,0,0,1,3.31-1.25A4,4,0,0,1,170.36,22.93ZM166,24.34a3.58,3.58,0,0,0-.32,1.77,9.59,9.59,0,0,0,.14,1.84,1.7,1.7,0,0,0,.48.94,1.43,1.43,0,0,0,.91.28,1.16,1.16,0,0,0,1.07-.51,3.66,3.66,0,0,0,.32-1.8,5.83,5.83,0,0,0-.34-2.37,1.21,1.21,0,0,0-1.18-.66A1.17,1.17,0,0,0,166,24.34Z"/><path class="cls-1" d="M178.76,22.26l-.39,2.17-.36.11a6.64,6.64,0,0,0-1.2-.59,3.08,3.08,0,0,0-1-.21.89.89,0,0,0-.59.18.55.55,0,0,0-.22.43.67.67,0,0,0,.35.57,5.83,5.83,0,0,0,1.06.48,11.61,11.61,0,0,1,1.3.62,2.86,2.86,0,0,1,.87.8,2.21,2.21,0,0,1,.38,1.31,2.92,2.92,0,0,1-.41,1.5,2.79,2.79,0,0,1-1.25,1.11,4.8,4.8,0,0,1-2.12.42,9.46,9.46,0,0,1-3-.54l.37-2.3.27-.19a5.21,5.21,0,0,0,1.41.82,3.64,3.64,0,0,0,1.33.31,1,1,0,0,0,.65-.19.64.64,0,0,0,.22-.48.66.66,0,0,0-.34-.55,7.35,7.35,0,0,0-1.07-.51,11,11,0,0,1-1.3-.59,2.57,2.57,0,0,1-.89-.82,2.23,2.23,0,0,1-.38-1.33,2.71,2.71,0,0,1,1-2.16,4.16,4.16,0,0,1,2.73-.83A7.32,7.32,0,0,1,178.76,22.26Z"/><path class="cls-1" d="M185.64,28.44l.22.23-.29,1.74a5.5,5.5,0,0,1-2,.67,3.37,3.37,0,0,1-2.13-.73,2.37,2.37,0,0,1-.73-1.82l.1-1.74,0-2.94H179.6l-.1-.15.14-1.65h1.13V20.51l2.78-.82.21.19-.07,2.17h2.11l.09.17-.13,1.63h-2.13l-.12,3.88a1.09,1.09,0,0,0,.21.77.89.89,0,0,0,.7.22A3,3,0,0,0,185.64,28.44Z"/><path class="cls-1" d="M194.18,21.38,194,26.94l.13,4h-3.09l.14-3.68V24.52l-2,.5-.21-.15V22.41l4.76-1.36Z"/><path class="cls-1" d="M89.57,50.14H88l-.29-1.23L87,46.8l-2.76-.06-2.5.06-.75,2-.3,1.31H79.17l4.51-12.3h1.78Zm-3-4.64-2-6.07h-.13L82.24,45.5l2.15,0Z"/><path class="cls-1" d="M102.33,44.17a1.81,1.81,0,0,0-.36-1.23,1.45,1.45,0,0,0-1.14-.44,3.71,3.71,0,0,0-2.55,1.33l0,2.49.08,3.82H96.77l.11-6a1.81,1.81,0,0,0-.36-1.23,1.45,1.45,0,0,0-1.14-.44,4,4,0,0,0-2.61,1.36v2.42l.08,3.86H91.34l.09-3.72-.08-5,1.44-.14V42.6h.12a5.71,5.71,0,0,1,2.44-1.36,3.67,3.67,0,0,1,1.76.37,2.1,2.1,0,0,1,1,1.08h.11a6.16,6.16,0,0,1,2.6-1.45,3.18,3.18,0,0,1,2.2.67,2.39,2.39,0,0,1,.73,1.92l0,2.49.08,3.82h-1.54Z"/><path class="cls-1" d="M111.2,41.64,111,42.89l-.23,0a3.36,3.36,0,0,0-1.84-.63,1.52,1.52,0,0,0-1,.36,1.17,1.17,0,0,0-.41.89,1,1,0,0,0,.42.83,7.27,7.27,0,0,0,1.27.72,12.68,12.68,0,0,1,1.2.62,2.88,2.88,0,0,1,.78.74,1.92,1.92,0,0,1,.33,1.14,2.58,2.58,0,0,1-.37,1.32,2.64,2.64,0,0,1-1.07,1,3.6,3.6,0,0,1-1.69.37,5.41,5.41,0,0,1-2.55-.63l.19-1.31.17-.11a4.26,4.26,0,0,0,1.16.71,3.13,3.13,0,0,0,1.18.25,1.67,1.67,0,0,0,1.15-.39,1.22,1.22,0,0,0,.44-.94,1,1,0,0,0-.41-.83,7.27,7.27,0,0,0-1.27-.72,13,13,0,0,1-1.21-.62,2.59,2.59,0,0,1-.79-.76,2.06,2.06,0,0,1-.33-1.19,2.28,2.28,0,0,1,.82-1.82,3.22,3.22,0,0,1,2.22-.71A5.52,5.52,0,0,1,111.2,41.64Z"/><path class="cls-1" d="M117.93,48.58l.17.12-.15,1a5.75,5.75,0,0,1-1.92.55,2.58,2.58,0,0,1-1.57-.8,2.7,2.7,0,0,1-.48-1.73l0-1.36v-4h-1.21l-.08-.12.1-.9H114V40l1.32-.58.15.14,0,1.86H118l.08.12-.09.9h-2.59l-.1,5.2a1.51,1.51,0,0,0,.27,1.07,1.21,1.21,0,0,0,.94.31A3,3,0,0,0,117.93,48.58Z"/><path class="cls-1" d="M120.33,45.69v0a3.71,3.71,0,0,0,.73,2.47,2.53,2.53,0,0,0,2.07.86,4.14,4.14,0,0,0,1.34-.22,4.19,4.19,0,0,0,1.23-.62l.16.11-.24,1.31a6,6,0,0,1-2.68.65,3.77,3.77,0,0,1-3-1.2,4.77,4.77,0,0,1-1.07-3.29A5,5,0,0,1,120,42.44a3.65,3.65,0,0,1,2.9-1.24,3.16,3.16,0,0,1,2.38.87,3.35,3.35,0,0,1,.84,2.43,6.19,6.19,0,0,1-.07,1l-.19.19Zm1-2.8a3.22,3.22,0,0,0-.86,1.76l4.25-.08,0-.26a2.15,2.15,0,0,0-.47-1.51,1.71,1.71,0,0,0-1.35-.53A2.23,2.23,0,0,0,121.28,42.89Z"/><path class="cls-1" d="M133,41.37v1.48l-.17,0a2.71,2.71,0,0,0-.71-.09,1.64,1.64,0,0,0-1.16.51,5.66,5.66,0,0,0-1.05,1.62l0,1.34.1,3.86h-1.52l.1-3.72-.08-5,1.44-.14,0,1.81H130a3.77,3.77,0,0,1,1.19-1.38,2.41,2.41,0,0,1,1.28-.41A3,3,0,0,1,133,41.37Z"/><path class="cls-1" d="M141.24,46.28l.06,2a1,1,0,0,0,.14.56.46.46,0,0,0,.42.17,2,2,0,0,0,.65-.12l.15.14-.15.86a2.35,2.35,0,0,1-1.07.38,1.43,1.43,0,0,1-.94-.4,1.6,1.6,0,0,1-.41-.94H140a10.52,10.52,0,0,1-1,.8,6,6,0,0,1-1,.52A3.66,3.66,0,0,1,135,49.07a4.84,4.84,0,0,1-1-3.31,4.68,4.68,0,0,1,1.14-3.36,4.07,4.07,0,0,1,3.12-1.2,7,7,0,0,1,1.69.19l0-4.59,1.52-.13Zm-5.16-3.17a3.6,3.6,0,0,0-.71,2.4,4.39,4.39,0,0,0,.64,2.54,2.07,2.07,0,0,0,1.78.9,2.22,2.22,0,0,0,1.05-.27,4.09,4.09,0,0,0,1.06-.9l0-1.38-.06-3.65a4.42,4.42,0,0,0-1.86-.48A2.4,2.4,0,0,0,136.08,43.11Z"/><path class="cls-1" d="M149.47,41.81a2.1,2.1,0,0,1,.72,1.69c0,.22,0,1-.12,2.36S150,48,150,48.24a.91.91,0,0,0,.14.58.56.56,0,0,0,.46.17,2.09,2.09,0,0,0,.65-.12l.16.14-.16.86a2.55,2.55,0,0,1-1.09.38,1.38,1.38,0,0,1-1-.42,1.44,1.44,0,0,1-.38-1h-.13a5.68,5.68,0,0,1-2.05,1.44,2.91,2.91,0,0,1-2-.64,2.23,2.23,0,0,1-.72-1.76,1.92,1.92,0,0,1,.45-1.34,2.56,2.56,0,0,1,1.34-.71l3.11-.73V43.84a1.6,1.6,0,0,0-.39-1.15,1.49,1.49,0,0,0-1.12-.4,3,3,0,0,0-1.31.31,6.05,6.05,0,0,0-1.4,1l-.15-.08-.19-1.09a5.37,5.37,0,0,1,3.28-1.19A2.94,2.94,0,0,1,149.47,41.81ZM146,46.74a1.19,1.19,0,0,0-.55.32.86.86,0,0,0-.18.6,1.32,1.32,0,0,0,.36,1,1.27,1.27,0,0,0,.95.36,3,3,0,0,0,2.15-1.37l.06-1.57Z"/><path class="cls-1" d="M164.27,44.17a1.76,1.76,0,0,0-.37-1.23,1.42,1.42,0,0,0-1.13-.44,3.71,3.71,0,0,0-2.55,1.33l0,2.49.08,3.82H158.7l.12-6a1.76,1.76,0,0,0-.37-1.23,1.42,1.42,0,0,0-1.13-.44,4,4,0,0,0-2.61,1.36v2.42l.08,3.86h-1.52l.1-3.72-.08-5,1.44-.14V42.6h.12a5.74,5.74,0,0,1,2.43-1.36,3.69,3.69,0,0,1,1.77.37,2.1,2.1,0,0,1,1,1.08h.11a6.18,6.18,0,0,1,2.59-1.45,3.19,3.19,0,0,1,2.21.67,2.39,2.39,0,0,1,.73,1.92l0,2.49.08,3.82h-1.54Z"/></g></g></svg>