<svg xmlns="http://www.w3.org/2000/svg" xmlns:xlink="http://www.w3.org/1999/xlink" viewBox="0 0 264.97 255.97"><defs><style>.cls-1{fill:none;}.cls-2,.cls-3{fill:#fff;}.cls-3{stroke:#231f20;stroke-linecap:round;stroke-linejoin:round;stroke-width:1.5px;}.cls-4{fill:url(#New_Pattern);}</style><pattern id="New_Pattern" data-name="New Pattern" width="264.97" height="255.97" patternTransform="translate(-204.12 170.03)" patternUnits="userSpaceOnUse" viewBox="0 0 264.97 255.97"><rect class="cls-1" width="264.97" height="255.97"/><path class="cls-2" d="M122.82,50.13a18.32,18.32,0,1,1,13-5.36A18.3,18.3,0,0,1,122.82,50.13Zm0-35.14a16.83,16.83,0,1,0,11.9,28.72h0A16.82,16.82,0,0,0,122.82,15Z"/><path class="cls-2" d="M137.67,22.55a.75.75,0,0,1-.53-.22l-4.83-4.83a.74.74,0,0,1,0-1.06L134.73,14a.74.74,0,0,1,1.06,0l4.83,4.83a.74.74,0,0,1,0,1.06l-2.42,2.43A.79.79,0,0,1,137.67,22.55ZM133.9,17l3.77,3.76L139,19.37l-3.77-3.77Z"/><path class="cls-2" d="M140.59,22.51a.71.71,0,0,1-.53-.22l-1-1a.74.74,0,0,1,0-1.06.75.75,0,0,1,1.06,0l.45.45,1.9-1.9-6.65-6.66-1.91,1.91.45.45a.75.75,0,1,1-1.06,1.06l-1-1a.75.75,0,0,1,0-1.06l3-3a.77.77,0,0,1,1.07,0l7.71,7.72a.74.74,0,0,1,0,1.06l-3,3A.74.74,0,0,1,140.59,22.51Z"/><path class="cls-2" d="M120.92,34.46h-.11a.74.74,0,0,1-.55-.4l-4.06-7.86a.74.74,0,0,1,.13-.87.76.76,0,0,1,.88-.14l7.86,4.06a.76.76,0,0,1,.18,1.2l-3.8,3.8A.75.75,0,0,1,120.92,34.46Zm-2.31-6.87,2.51,4.86,2.35-2.35Z"/><polygon class="cls-2" points="128.78 37.77 120.92 33.71 124.72 29.91 128.78 37.77"/><path class="cls-2" d="M128.78,38.52a.84.84,0,0,1-.34-.08l-7.86-4.06a.78.78,0,0,1-.4-.56.73.73,0,0,1,.21-.64l3.8-3.8a.74.74,0,0,1,.65-.21.72.72,0,0,1,.55.39l4.06,7.87a.73.73,0,0,1-.14.87A.71.71,0,0,1,128.78,38.52Zm-6.6-5L127,36l-2.51-4.86Z"/><path class="cls-2" d="M122.82,46.19A14.36,14.36,0,1,1,133,42,14.35,14.35,0,0,1,122.82,46.19Zm0-27.27a12.87,12.87,0,1,0,9.12,3.77A12.81,12.81,0,0,0,122.82,18.92Z"/><path class="cls-2" d="M243.46,192.91a18.31,18.31,0,1,1,13-5.35A18.26,18.26,0,0,1,243.46,192.91Zm0-35.13a16.82,16.82,0,1,0,11.89,4.92A16.78,16.78,0,0,0,243.46,157.78Z"/><path class="cls-2" d="M258.3,165.33a.73.73,0,0,1-.53-.22l-4.83-4.83a.75.75,0,0,1,0-1.06l2.43-2.42a.74.74,0,0,1,1.06,0l4.83,4.83a.75.75,0,0,1,0,1.06l-2.43,2.42A.74.74,0,0,1,258.3,165.33Zm-3.77-5.58,3.77,3.77,1.37-1.36-3.77-3.77Z"/><path class="cls-2" d="M261.22,165.3a.73.73,0,0,1-.53-.22l-1-1a.75.75,0,0,1,1.06-1.06l.45.45,1.9-1.9-6.65-6.66-1.91,1.9.45.45a.75.75,0,0,1,0,1.06.74.74,0,0,1-1.06,0l-1-1a.75.75,0,0,1,0-1.06l3-3a.75.75,0,0,1,1.06,0l7.71,7.72a.74.74,0,0,1,0,1.06l-3,3A.74.74,0,0,1,261.22,165.3Z"/><path class="cls-2" d="M241.55,177.25h-.11a.74.74,0,0,1-.55-.4L236.83,169a.75.75,0,0,1,1-1L245.7,172a.76.76,0,0,1,.4.55.81.81,0,0,1-.21.65l-3.81,3.8A.75.75,0,0,1,241.55,177.25Zm-2.31-6.87,2.51,4.86,2.35-2.35Z"/><polygon class="cls-2" points="249.42 180.56 241.55 176.5 245.36 172.7 249.42 180.56"/><path class="cls-2" d="M249.42,181.31a.85.85,0,0,1-.35-.08l-7.86-4.07a.74.74,0,0,1-.4-.55A.76.76,0,0,1,241,176l3.81-3.8a.75.75,0,0,1,.64-.22.76.76,0,0,1,.55.4l4.06,7.87a.74.74,0,0,1-.13.87A.79.79,0,0,1,249.42,181.31Zm-6.61-5,4.86,2.51L245.16,174Z"/><path class="cls-2" d="M243.46,189a14.4,14.4,0,1,1,10.17-4.22A14.3,14.3,0,0,1,243.46,189Zm0-27.29a12.91,12.91,0,1,0,9.11,3.78A12.82,12.82,0,0,0,243.46,161.7Z"/><path class="cls-2" d="M162.23,57.05a3.08,3.08,0,0,1-2-.84A7.3,7.3,0,0,1,158,50a2.45,2.45,0,0,1,4.32-1.57,6.91,6.91,0,0,1,1.85,2.82h0a6.93,6.93,0,0,1,.4,3.36A2.73,2.73,0,0,1,163,56.92,2,2,0,0,1,162.23,57.05Zm-1.88-7.92a.71.71,0,0,0-.21,0c-.32.12-.55.52-.65,1.12a5.26,5.26,0,0,0,.32,2.59,5.38,5.38,0,0,0,1.42,2.2,1.32,1.32,0,0,0,1.22.44c.31-.11.55-.52.65-1.12a5.39,5.39,0,0,0-.33-2.59h0a5.19,5.19,0,0,0-1.42-2.2A1.64,1.64,0,0,0,160.35,49.13Z"/><path class="cls-2" d="M190.22,57a2.16,2.16,0,0,1-.71-.12c-1.62-.59-2.16-3.07-1.23-5.64h0c.94-2.57,2.94-4.12,4.56-3.53s2.16,3.07,1.23,5.64C193.26,55.59,191.68,57,190.22,57Zm-.53-5.24c-.66,1.81-.37,3.46.33,3.71s2-.82,2.64-2.64.37-3.45-.33-3.71-2,.82-2.64,2.64Z"/><path class="cls-2" d="M189.76,57l-.23,0L176,52.5a.74.74,0,0,1-.52-.71.75.75,0,0,1,.52-.71l13.28-4.34a.75.75,0,0,1,.47,0l3.07,1a.75.75,0,1,1-.47,1.43l-2.84-.93-10.86,3.55L190,55.5a.75.75,0,0,1,.48,1A.76.76,0,0,1,189.76,57Z"/><path class="cls-2" d="M174.72,48.73c-9.6,0-11.61-5.26-11.61-9.67,0-6.08,8.49-12,8.85-12.31a.77.77,0,0,1,.88,0,.75.75,0,0,1,.25.85s-1.16,3.38.2,5.35a4.19,4.19,0,0,0,3.56,1.51,2.21,2.21,0,0,0,1.81-.79c2.27-2.51,1.93-10.12,1.6-12.84a.75.75,0,0,1,.42-.76.76.76,0,0,1,.86.14c.3.3,7.33,7.38,7.09,15.58C188.39,43.66,182.93,48.73,174.72,48.73Zm-3.51-19.5c-2.4,2-6.61,6-6.6,9.83,0,5.42,3.4,8.17,10.11,8.17,7.44,0,12.19-4.39,12.41-11.46.16-5.34-3.19-10.32-5.19-12.81.17,3.29.13,9.2-2.17,11.74a3.77,3.77,0,0,1-3,1.28,5.6,5.6,0,0,1-4.76-2.16A6.7,6.7,0,0,1,171.21,29.23Z"/><path class="cls-2" d="M163,48.2a.67.67,0,0,1-.24,0l-3.07-1A2.7,2.7,0,0,1,158,44.87a7.3,7.3,0,0,1,2.25-6.18A2.69,2.69,0,0,1,163,38l1.13.37a.75.75,0,0,1,.52.71c0,2.91,1,5.06,2.94,6.41a.77.77,0,0,1,.31.73.75.75,0,0,1-.51.6l-4.16,1.36A.62.62,0,0,1,163,48.2Zm-.73-8.84a1.64,1.64,0,0,0-1,.47,5.38,5.38,0,0,0-1.42,2.2,5.26,5.26,0,0,0-.32,2.59c.1.6.33,1,.65,1.12l2.82.92,2.63-.86a8.84,8.84,0,0,1-2.47-6.19l-.65-.21A.61.61,0,0,0,162.23,39.36Z"/><path class="cls-2" d="M162.7,57a.75.75,0,0,1-.23-1.46l29.88-9.77c.68-.24,1-1.89.31-3.7s-1.94-2.89-2.64-2.64l-2.12.69c-1.76,5.43-6.66,8.65-13.18,8.65A14.45,14.45,0,0,1,167,46.92l-6.9,2.25a.75.75,0,0,1-.46-1.43l7.23-2.36a.79.79,0,0,1,.67.09,12.51,12.51,0,0,0,7.17,1.76c6,0,10.4-3,11.86-7.95a.75.75,0,0,1,.48-.5l2.47-.81c1.6-.58,3.6,1,4.54,3.54s.39,5.05-1.23,5.64l-29.9,9.78A1,1,0,0,1,162.7,57Z"/><path class="cls-2" d="M48.24,183.28a3.06,3.06,0,0,1-2-.83A7.33,7.33,0,0,1,44,176.27,2.71,2.71,0,0,1,45.64,174a2.34,2.34,0,0,1,1.82.13,6,6,0,0,1,2.74,3.4h0a6.76,6.76,0,0,1,.39,3.35A2.71,2.71,0,0,1,49,183.16,2.24,2.24,0,0,1,48.24,183.28Zm-1.87-7.92a.54.54,0,0,0-.22,0c-.31.11-.55.52-.65,1.11a5.86,5.86,0,0,0,1.74,4.8,1.38,1.38,0,0,0,1.22.44c.31-.12.55-.52.65-1.12a5.54,5.54,0,0,0-.32-2.6h0a4.6,4.6,0,0,0-2-2.55A1.12,1.12,0,0,0,46.37,175.36Z"/><path class="cls-2" d="M76.23,183.28a2.16,2.16,0,0,1-.71-.12c-1.62-.59-2.16-3.07-1.22-5.64h0a6.78,6.78,0,0,1,1.85-2.82,2.71,2.71,0,0,1,2.71-.71c1.62.59,2.15,3.06,1.22,5.63C79.28,181.83,77.69,183.28,76.23,183.28ZM75.71,178c-.66,1.82-.38,3.46.32,3.72s2-.82,2.64-2.64.37-3.46-.33-3.71c-.31-.12-.75,0-1.21.44A5.31,5.31,0,0,0,75.71,178Z"/><path class="cls-2" d="M75.78,183.2a.67.67,0,0,1-.24,0L62,178.74a.75.75,0,0,1-.51-.71.77.77,0,0,1,.51-.72L75.29,173a.94.94,0,0,1,.47,0l3.07,1a.75.75,0,0,1,.48,1,.76.76,0,0,1-.94.48l-2.85-.93L64.66,178,76,181.74a.75.75,0,0,1,.48.94A.76.76,0,0,1,75.78,183.2Z"/><path class="cls-2" d="M60.73,175c-9.6,0-11.61-5.26-11.61-9.67,0-6.08,8.49-12.06,8.85-12.31a.74.74,0,0,1,.88,0,.77.77,0,0,1,.26.85s-1.17,3.37.19,5.35a4.19,4.19,0,0,0,3.56,1.5,2.19,2.19,0,0,0,1.81-.79c2.28-2.5,1.93-10.11,1.6-12.83a.76.76,0,0,1,1.28-.62c.3.3,7.33,7.38,7.09,15.58C74.4,169.9,68.94,175,60.73,175Zm-3.51-19.5c-2.39,2-6.6,6-6.6,9.83,0,5.42,3.4,8.17,10.11,8.17,7.44,0,12.2-4.4,12.41-11.47.16-5.33-3.19-10.31-5.19-12.8.18,3.28.13,9.2-2.17,11.73a3.81,3.81,0,0,1-3,1.28,5.55,5.55,0,0,1-4.76-2.16A6.68,6.68,0,0,1,57.22,155.47Z"/><path class="cls-2" d="M49,174.44a.85.85,0,0,1-.23,0l-3.08-1A2.69,2.69,0,0,1,44,171.11a6.79,6.79,0,0,1,.39-3.36,6.7,6.7,0,0,1,1.86-2.82,2.69,2.69,0,0,1,2.7-.71l1.13.37a.75.75,0,0,1,.52.71c0,2.9,1,5.06,2.94,6.41a.75.75,0,0,1-.2,1.33L49.2,174.4A.85.85,0,0,1,49,174.44Zm-.72-8.84a1.6,1.6,0,0,0-1,.47,5.32,5.32,0,0,0-1.43,2.19,5.42,5.42,0,0,0-.32,2.6c.1.6.34,1,.65,1.12l2.82.92L51.6,172a8.84,8.84,0,0,1-2.47-6.19l-.65-.21A.59.59,0,0,0,48.25,165.6Z"/><path class="cls-2" d="M48.72,183.2a.76.76,0,0,1-.72-.52.75.75,0,0,1,.48-.94L78.37,172c.67-.25,1-1.89.3-3.71s-1.94-2.89-2.64-2.63l-2.12.69c-1.76,5.42-6.66,8.65-13.18,8.65A14.35,14.35,0,0,1,53,173.15l-6.89,2.25a.75.75,0,1,1-.47-1.42l7.24-2.37a.74.74,0,0,1,.66.1,12.51,12.51,0,0,0,7.17,1.76c6,0,10.4-3,11.86-7.95a.72.72,0,0,1,.49-.5l2.46-.81c1.6-.58,3.6,1,4.54,3.54s.4,5.05-1.22,5.64L49,183.16A.66.66,0,0,1,48.72,183.2Z"/><path class="cls-2" d="M19.15,72.34c-2.21,0-3.93-2.4-3.93-5.47s1.72-5.47,3.93-5.47,3.93,2.41,3.93,5.47S21.35,72.34,19.15,72.34Zm0-9.44c-1.32,0-2.43,1.82-2.43,4s1.11,4,2.43,4,2.43-1.82,2.43-4S20.46,62.9,19.15,62.9Z"/><path class="cls-2" d="M19.15,75c-2.51,0-6.7-1.06-6.7-8.14,0-6.86,7.21-10.38,7.52-10.53a.88.88,0,0,1,.32-.07h4.5a.75.75,0,0,1,.75.75v9.85C25.54,69.51,25.54,75,19.15,75Zm1.32-17.24c-1,.51-6.52,3.69-6.52,9.1,0,4.47,1.7,6.64,5.2,6.64,4.52,0,4.89-3.14,4.89-6.64v-9.1Z"/><path class="cls-2" d="M39.24,65.54a4.44,4.44,0,0,1-1.43-.25,7.21,7.21,0,0,1-4.51-6,3.48,3.48,0,0,1,1.26-3.09h0a3.48,3.48,0,0,1,3.33-.36A6.74,6.74,0,0,1,41,58.2c1.85,2.45,1.91,5.41.15,6.73A3.08,3.08,0,0,1,39.24,65.54Zm-2.77-8.46a1.64,1.64,0,0,0-1,.31h0a2,2,0,0,0-.66,1.81A5.2,5.2,0,0,0,35.91,62a5.27,5.27,0,0,0,2.39,1.85,2,2,0,0,0,1.94-.14c1-.79.85-2.91-.45-4.63a5.22,5.22,0,0,0-2.39-1.85A2.7,2.7,0,0,0,36.47,57.08ZM35,56.79h0Z"/><path class="cls-2" d="M38.81,68.59c-2.92,0-4.94-2.68-6.07-4.19l-5.92-7.87A.75.75,0,0,1,27,55.48l3.59-2.71a.85.85,0,0,1,.31-.13c.33-.07,8.22-1.59,12.34,3.89h0c4.25,5.66,1.53,9-.47,10.53A6.55,6.55,0,0,1,38.81,68.59ZM28.47,56.22l5.47,7.28c2.1,2.8,4.28,5.08,7.9,2.37,2.8-2.11,2.85-4.87.17-8.44-3.26-4.34-9.61-3.53-10.69-3.35Z"/><path class="cls-2" d="M22.76,57.12a.75.75,0,0,1-.6-.3L11,42c-1.28-1.69.17-3.66,1.11-4.47a.79.79,0,0,1,.55-.18.74.74,0,0,1,.51.27L24.45,50.9l6.75,1.75a.74.74,0,0,1,.55.58.72.72,0,0,1-.29.74l-3.59,2.71a.84.84,0,0,1-.4.14l-4.66.3ZM12.57,39.19c-.41.51-.83,1.27-.37,1.88L23.12,55.59l4-.25,2.17-1.63-5.48-1.42a.69.69,0,0,1-.38-.24Z"/><path class="cls-2" d="M24.79,57.77h-4.5a.74.74,0,0,1-.67-.42.75.75,0,0,1,.09-.8l1.52-1.91a.72.72,0,0,1,.6-.28.76.76,0,0,1,.59.3l.7.93,2.94-.18a.7.7,0,0,1,.75.51.73.73,0,0,1-.3.86l-1.31.87A.73.73,0,0,1,24.79,57.77Z"/><path class="cls-2" d="M28.69,53.52l-.19,0-4.15-1.08a.75.75,0,0,1-.4-1.19l.11-.13,1-17.42a.74.74,0,0,1,.79-.7c1.24.07,3.59.78,3.58,2.9V52.77a.75.75,0,0,1-.29.59A.72.72,0,0,1,28.69,53.52Zm-3.14-2.34,2.39.62V35.88c0-.76-.79-1.11-1.42-1.28Z"/><path class="cls-2" d="M25.05,54.92a.76.76,0,1,1,.76-.75A.76.76,0,0,1,25.05,54.92Zm.74-.75h0Zm-.74,0h0Z"/><path class="cls-2" d="M179.75,220.32c-2.21,0-3.93-2.4-3.93-5.47s1.72-5.47,3.93-5.47,3.93,2.4,3.93,5.47S182,220.32,179.75,220.32Zm0-9.44c-1.32,0-2.43,1.82-2.43,4s1.11,4,2.43,4,2.43-1.82,2.43-4S181.07,210.88,179.75,210.88Z"/><path class="cls-2" d="M179.75,223c-2.51,0-6.7-1.06-6.7-8.14,0-6.86,7.21-10.38,7.52-10.53a.71.71,0,0,1,.32-.07h4.5a.74.74,0,0,1,.75.75v9.85C186.14,217.49,186.14,223,179.75,223Zm1.33-17.24c-1,.51-6.53,3.68-6.53,9.1,0,4.47,1.7,6.64,5.2,6.64,4.52,0,4.89-3.14,4.89-6.64v-9.1Z"/><path class="cls-2" d="M199.83,213.52a6,6,0,0,1-4.52-2.62c-1.84-2.45-1.91-5.41-.15-6.74a3.5,3.5,0,0,1,3.33-.35,6.79,6.79,0,0,1,3.1,2.36c1.85,2.46,1.91,5.41.15,6.74A3.17,3.17,0,0,1,199.83,213.52Zm-2.76-8.47a1.71,1.71,0,0,0-1,.31c-1.05.79-.85,2.92.45,4.64s3.27,2.5,4.33,1.71.85-2.91-.45-4.64a5.21,5.21,0,0,0-2.39-1.84A2.73,2.73,0,0,0,197.07,205.05Z"/><path class="cls-2" d="M199.41,216.56c-2.92,0-4.93-2.67-6.07-4.18l-5.92-7.88a.75.75,0,0,1,.15-1.05l3.6-2.7a.76.76,0,0,1,.3-.14c.33-.06,8.22-1.59,12.34,3.9,4.25,5.66,1.53,9-.47,10.53A6.53,6.53,0,0,1,199.41,216.56ZM189.07,204.2l5.47,7.28c2.1,2.79,4.29,5.08,7.9,2.36,2.8-2.1,2.85-4.86.17-8.43-3.25-4.33-9.6-3.53-10.69-3.35Z"/><path class="cls-2" d="M183.36,205.09a.75.75,0,0,1-.6-.3s-10-13.27-11.16-14.84.17-3.67,1.11-4.47a.79.79,0,0,1,.55-.18.77.77,0,0,1,.51.26l11.28,13.31,6.75,1.75a.76.76,0,0,1,.27,1.33l-3.6,2.7a.76.76,0,0,1-.4.15l-4.66.29Zm-10.19-17.92c-.41.51-.83,1.27-.37,1.87l10.92,14.53,4-.25,2.17-1.63-5.48-1.42a.75.75,0,0,1-.38-.25Z"/><path class="cls-2" d="M185.39,205.75h-4.5a.75.75,0,0,1-.67-.43.74.74,0,0,1,.09-.79l1.52-1.91a.75.75,0,0,1,.6-.28.73.73,0,0,1,.59.3l.7.93,2.94-.18a.75.75,0,0,1,.46,1.37l-1.32.86A.74.74,0,0,1,185.39,205.75Z"/><path class="cls-2" d="M189.29,201.5l-.19,0L185,200.4a.75.75,0,0,1-.52-.49.73.73,0,0,1,.12-.7l.11-.14,1-17.41a.74.74,0,0,1,.25-.52.76.76,0,0,1,.54-.19c1.25.08,3.59.79,3.58,2.91v16.89a.75.75,0,0,1-.75.75Zm-3.14-2.34,2.39.62V183.85c0-.75-.79-1.11-1.42-1.27Z"/><path class="cls-2" d="M185.65,202.9a.76.76,0,1,1,.76-.76A.77.77,0,0,1,185.65,202.9Zm.74-.76h0Zm-.74,0h0Z"/><path class="cls-2" d="M86.19,80.6h0a.75.75,0,0,1-.53-.22l-9.1-9.14a.75.75,0,0,1,0-1.06L91.78,55a.75.75,0,0,1,.53-.22h0a.75.75,0,0,1,.53.22l9.1,9.14a.75.75,0,0,1,0,1.06L86.72,80.38A.75.75,0,0,1,86.19,80.6Zm-8-9.89,8,8.08,14.15-14.08-8-8.08Z"/><path class="cls-2" d="M81.44,81h0a.79.79,0,0,1-.53-.22L76.11,76a.75.75,0,0,1,0-1.06l2.6-2.58a.75.75,0,0,1,.53-.22h0a.75.75,0,0,1,.53.22l4.8,4.82a.75.75,0,0,1,0,1.06L82,80.81A.75.75,0,0,1,81.44,81ZM77.7,75.46l3.75,3.76L83,77.69l-3.74-3.76Z"/><path class="cls-2" d="M74.22,84.66a.74.74,0,0,1-.53-.22l-.79-.79a.77.77,0,0,1,0-1.07.75.75,0,0,1,1.06,0l.42.42a23.12,23.12,0,0,0,5.56-4.24.75.75,0,0,1,1.06,0,.74.74,0,0,1,0,1.06,21.49,21.49,0,0,1-6.5,4.78A.66.66,0,0,1,74.22,84.66Z"/><path class="cls-2" d="M73.43,83.87a.79.79,0,0,1-.53-.22L72.27,83a.74.74,0,0,1-.14-.86,26.55,26.55,0,0,1,5-6.25A.75.75,0,0,1,78.14,77a29.44,29.44,0,0,0-4.41,5.4l.23.23a.75.75,0,0,1,0,1.06A.79.79,0,0,1,73.43,83.87Z"/><path class="cls-2" d="M91.9,74.91a.74.74,0,0,1-.53-.22l-9.09-9.14a.74.74,0,0,1,0-1.06L88.83,58a.75.75,0,0,1,1.06,0L99,67.12a.7.7,0,0,1,.21.53.75.75,0,0,1-.22.53L92.43,74.7A.76.76,0,0,1,91.9,74.91Zm-8-9.88,8,8.07,5.48-5.46-8-8.08Z"/><path class="cls-2" d="M139.09,192.05a.79.79,0,0,1-.53-.22l-9.09-9.14a.75.75,0,0,1,0-1.07l15.21-15.14a.79.79,0,0,1,.53-.22h0a.79.79,0,0,1,.53.22l9.09,9.15a.75.75,0,0,1,0,1.06l-15.22,15.14A.73.73,0,0,1,139.09,192.05Zm-8-9.89,8,8.08,14.15-14.09-8-8.08Z"/><path class="cls-2" d="M134.35,192.47h0a.75.75,0,0,1-.53-.22l-4.8-4.82a.75.75,0,0,1,0-1.06l2.6-2.59a.75.75,0,0,1,.53-.22h0a.8.8,0,0,1,.53.23l4.8,4.82a.75.75,0,0,1,0,1.06l-2.59,2.58A.75.75,0,0,1,134.35,192.47Zm-3.74-5.57,3.74,3.76,1.53-1.52-3.74-3.76Z"/><path class="cls-2" d="M127.13,196.11a.75.75,0,0,1-.53-.22l-.8-.8a.75.75,0,0,1,0-1.06.75.75,0,0,1,1.06,0l.42.43a23.53,23.53,0,0,0,5.56-4.24.74.74,0,0,1,1.06,0,.75.75,0,0,1,0,1.06,22,22,0,0,1-6.5,4.78A.92.92,0,0,1,127.13,196.11Z"/><path class="cls-2" d="M126.34,195.31a.75.75,0,0,1-.54-.22l-.63-.63a.76.76,0,0,1-.14-.86,27.31,27.31,0,0,1,5-6.26.75.75,0,0,1,1.06,1.06,29.44,29.44,0,0,0-4.41,5.4l.23.23a.75.75,0,0,1,0,1.06A.7.7,0,0,1,126.34,195.31Z"/><path class="cls-2" d="M144.81,186.36a.73.73,0,0,1-.53-.22l-9.1-9.14a.75.75,0,0,1,0-1.06l6.55-6.52a.77.77,0,0,1,1.07,0l9.09,9.14a.75.75,0,0,1,0,1.06l-6.55,6.52A.74.74,0,0,1,144.81,186.36Zm-8-9.89,8,8.08,5.49-5.46-8-8.08Z"/><path class="cls-2" d="M179.26,151.27h-14.9a.76.76,0,0,1-.75-.75v-6.58a.76.76,0,0,1,.75-.75h14.9a.75.75,0,0,1,.75.75v6.58A.75.75,0,0,1,179.26,151.27Zm-14.15-1.5h13.4v-5.08h-13.4Z"/><path class="cls-2" d="M157.58,148a.8.8,0,0,1-.3-.06c-5.82-2.58-5.63-6.7-5.28-8.35.73-3.46,4.07-6.49,7.16-6.49,9.93,0,10.72,10.76,10.72,10.87a.75.75,0,0,1-1.49.09c0-.38-.72-9.46-9.23-9.46-2.4,0-5.11,2.53-5.7,5.3-.49,2.34.55,4.39,2.95,5.89-.6-2.45-.73-4.32.14-5.47a3.21,3.21,0,0,1,2.78-1.1c3,0,4.92,1.56,5.73,4.57a.76.76,0,0,1-.54.92.74.74,0,0,1-.91-.53c-.64-2.38-2-3.45-4.29-3.46-1.19,0-1.48.38-1.58.51-.72.95-.08,3.61.56,5.81a.77.77,0,0,1-.23.78A.72.72,0,0,1,157.58,148Z"/><path class="cls-2" d="M174.46,144.75h-5.3a.75.75,0,0,1-.69-.47,39.75,39.75,0,0,1-2.71-13.18c0-6.59,5.25-13.1,5.47-13.37a.75.75,0,0,1,.58-.28h0a.72.72,0,0,1,.58.28c.23.27,5.48,6.78,5.47,13.37a39.75,39.75,0,0,1-2.71,13.18A.75.75,0,0,1,174.46,144.75Zm-4.78-1.5h4.26a38.33,38.33,0,0,0,2.42-12.15c0-4.82-3.2-9.78-4.55-11.65-1.34,1.87-4.55,6.84-4.55,11.65A38.33,38.33,0,0,0,169.68,143.25Z"/><path class="cls-2" d="M186,148a.78.78,0,0,1-.5-.19.74.74,0,0,1-.22-.77c.64-2.21,1.28-4.86.56-5.82-.1-.12-.39-.51-1.55-.51h0c-2.33,0-3.65,1.08-4.29,3.46a.74.74,0,0,1-.92.53.75.75,0,0,1-.53-.92c.81-3,2.73-4.55,5.73-4.57h0a3.17,3.17,0,0,1,2.74,1.11c.87,1.15.74,3,.14,5.47,2.4-1.5,3.44-3.55,2.95-5.9-.59-2.77-3.3-5.29-5.7-5.29h0c-8.51,0-9.2,9.07-9.23,9.46a.75.75,0,1,1-1.49-.1c0-.11.8-10.86,10.72-10.86h0c3.09,0,6.44,3,7.17,6.48.34,1.66.53,5.78-5.29,8.35A.82.82,0,0,1,186,148Z"/><path class="cls-2" d="M171.81,160.51a.76.76,0,0,1-.66-.39,16.35,16.35,0,0,1-2.56-6.85,5.44,5.44,0,0,1-4.61,3c-3,0-4.17-1.6-4.65-2.94-.62-1.69-.37-4.14.12-4.55a.75.75,0,0,1,.86-.07.83.83,0,0,1,.35.94,1.47,1.47,0,0,0,.33,1,2.53,2.53,0,0,0,1.07.93c1.53,0,1.55-.73,1.55-1.12a.75.75,0,0,1,.75-.73h0a.74.74,0,0,1,.73.76c0,.78-.34,2.59-3.07,2.59a2.43,2.43,0,0,1-1.42-.64,3.37,3.37,0,0,0,.52,1.14A3.24,3.24,0,0,0,164,154.8c2.5,0,3.68-2.86,4.18-4.08.22-.54.45-1.1,1.1-1s.65.8.65,1.09a15.72,15.72,0,0,0,1.9,7.47,16,16,0,0,0,1.9-7.47c0-.29,0-1,.64-1.09s.89.43,1.11,1c.5,1.22,1.68,4.08,4.17,4.08h0a3.26,3.26,0,0,0,2.84-1.17,3.44,3.44,0,0,0,.51-1.14,2.42,2.42,0,0,1-1.41.63c-2.74,0-3.06-1.81-3.08-2.59a.76.76,0,0,1,.74-.76h0a.75.75,0,0,1,.75.74c0,.36,0,1.11,1.58,1.11a2.64,2.64,0,0,0,1-.92,1.49,1.49,0,0,0,.33-1,.84.84,0,0,1,.35-.94.76.76,0,0,1,.86.08c.48.41.73,2.85.12,4.55-.49,1.33-1.69,2.93-4.66,2.93h0a5.42,5.42,0,0,1-4.6-3,16.56,16.56,0,0,1-2.54,6.81h0A.73.73,0,0,1,171.81,160.51Z"/><path class="cls-2" d="M33.82,236.61H18.92a.75.75,0,0,1-.75-.75v-6.57a.74.74,0,0,1,.75-.75h14.9a.75.75,0,0,1,.75.75v6.57A.76.76,0,0,1,33.82,236.61Zm-14.15-1.5h13.4V230H19.67Z"/><path class="cls-2" d="M12.13,233.32a.8.8,0,0,1-.3-.06c-5.82-2.58-5.63-6.7-5.28-8.35.73-3.46,4.08-6.49,7.16-6.49,9.93,0,10.72,10.76,10.73,10.87a.75.75,0,1,1-1.5.1c0-.39-.72-9.47-9.23-9.47-2.39,0-5.11,2.53-5.69,5.3-.5,2.34.54,4.39,2.94,5.89-.6-2.45-.73-4.32.14-5.46a3.14,3.14,0,0,1,2.79-1.11c3,0,4.92,1.56,5.72,4.57a.75.75,0,1,1-1.45.39c-.63-2.38-1.95-3.44-4.28-3.46-1.19,0-1.49.38-1.58.51-.74,1,0,3.78.56,5.81a.75.75,0,0,1-.73,1Z"/><path class="cls-2" d="M29,230.09H23.72a.76.76,0,0,1-.7-.47,39.75,39.75,0,0,1-2.71-13.18c0-6.59,5.25-13.1,5.48-13.37a.72.72,0,0,1,.58-.28h0a.74.74,0,0,1,.58.28c.22.27,5.47,6.78,5.47,13.37a39.75,39.75,0,0,1-2.71,13.18A.76.76,0,0,1,29,230.09Zm-4.78-1.5H28.5a38.55,38.55,0,0,0,2.42-12.15c0-4.8-3.21-9.78-4.55-11.65-1.35,1.87-4.56,6.84-4.56,11.65A38.33,38.33,0,0,0,24.23,228.59Z"/><path class="cls-2" d="M40.59,233.33a.76.76,0,0,1-.72-1c.64-2.21,1.28-4.86.56-5.81-.09-.13-.39-.52-1.55-.52h0c-2.33,0-3.65,1.09-4.28,3.46a.75.75,0,0,1-1.45-.38c.8-3,2.73-4.56,5.72-4.58h0a3.22,3.22,0,0,1,2.75,1.11c.86,1.15.74,3,.13,5.47,2.41-1.5,3.45-3.55,3-5.9-.58-2.77-3.3-5.29-5.69-5.29h0c-8.53,0-9.2,9.07-9.22,9.46a.77.77,0,0,1-.8.7.75.75,0,0,1-.7-.8c0-.11.8-10.86,10.72-10.86h0c3.08,0,6.43,3,7.16,6.48.35,1.66.53,5.78-5.29,8.35A.63.63,0,0,1,40.59,233.33Z"/><path class="cls-2" d="M26.37,245.85a.75.75,0,0,1-.66-.39,16.45,16.45,0,0,1-2.57-6.85,5.43,5.43,0,0,1-4.6,3c-3,0-4.17-1.6-4.66-2.93-.61-1.7-.36-4.15.12-4.55a.76.76,0,0,1,.87-.08.84.84,0,0,1,.34.94,1.42,1.42,0,0,0,.34,1,2.46,2.46,0,0,0,1.07.93c1.53,0,1.54-.73,1.55-1.11a.75.75,0,0,1,.75-.74h0a.76.76,0,0,1,.74.76c0,.78-.34,2.59-3.08,2.59a2.38,2.38,0,0,1-1.41-.64,3.17,3.17,0,0,0,.51,1.14,3.27,3.27,0,0,0,2.85,1.18c2.49,0,3.67-2.86,4.17-4.08.23-.54.46-1.1,1.11-1s.65.8.65,1.09a15.85,15.85,0,0,0,1.89,7.47,15.87,15.87,0,0,0,1.9-7.47c0-.29,0-1,.65-1.09s.88.43,1.1,1c.5,1.22,1.68,4.08,4.18,4.08h0A3.24,3.24,0,0,0,37,239a3.47,3.47,0,0,0,.52-1.14,2.48,2.48,0,0,1-1.42.63c-2.73,0-3.06-1.81-3.07-2.59a.75.75,0,0,1,.73-.76h0a.76.76,0,0,1,.75.74c0,.36,0,1.11,1.57,1.11a2.51,2.51,0,0,0,1-.92,1.49,1.49,0,0,0,.33-1,.84.84,0,0,1,.35-.93.75.75,0,0,1,.86.07c.49.41.74,2.86.12,4.55-.48,1.34-1.68,2.93-4.65,2.93h0a5.42,5.42,0,0,1-4.61-3A16.41,16.41,0,0,1,27,245.42v0A.76.76,0,0,1,26.37,245.85Z"/><path class="cls-3" d="M230.94,72.76"/><path class="cls-2" d="M245.23,111.29H228.29a.75.75,0,0,1-.75-.71s0-1.24,0-3.85.09-4.12,2.69-4.12h13.06c2.61,0,2.64,1.52,2.69,4,.05,2.68,0,3.87,0,3.92A.75.75,0,0,1,245.23,111.29Zm0-.75h0ZM229,109.79H244.5c0-.6,0-1.6,0-3,0-2.65,0-2.65-1.19-2.65H230.23c-1.14,0-1.14,0-1.19,2.58C229,108.16,229,109.18,229,109.79Z"/><path class="cls-2" d="M241.53,104.11l-.14,0a.74.74,0,0,1-.6-.87,3.65,3.65,0,0,0-.67-2.71,5.37,5.37,0,0,0-6.73,0,3.73,3.73,0,0,0-.66,2.7.75.75,0,0,1-1.47.27,5.15,5.15,0,0,1,1-3.93,6.77,6.77,0,0,1,9,0,5.15,5.15,0,0,1,1,3.93A.75.75,0,0,1,241.53,104.11Z"/><path class="cls-2" d="M236.76,97.16c-1.72,0-2.45-.73-2.76-1.35-1.15-2.24,1.59-6.25,2.15-7a.78.78,0,0,1,1.22,0c.56.78,3.31,4.79,2.16,7A2.79,2.79,0,0,1,236.76,97.16Zm0-6.59c-1,1.62-1.88,3.68-1.43,4.56.18.35.66.53,1.43.53s1.25-.18,1.43-.53C238.64,94.25,237.75,92.19,236.76,90.57Z"/><path class="cls-2" d="M240.63,100.38a.75.75,0,0,1-.34-1.42l.27-.14c2.66-1.36,4.76-2.44,4.76-6,0-1.94-1.32-3.51-2.6-5s-2.46-2.93-2.46-4.7V79.65h-7v3.42c0,1.77-1.19,3.2-2.46,4.7s-2.59,3.1-2.59,5c0,3.57,2.1,4.65,4.75,6l.28.14a.75.75,0,0,1-.69,1.33l-.27-.14c-2.74-1.4-5.57-2.85-5.57-7.34,0-2.49,1.56-4.35,2.95-6,1.08-1.29,2.1-2.51,2.1-3.74V78.9a.76.76,0,0,1,.75-.75H241a.76.76,0,0,1,.75.75v4.17c0,1.23,1,2.45,2.11,3.74,1.38,1.65,2.95,3.51,2.95,6,0,4.49-2.84,5.94-5.58,7.35l-.27.13A.72.72,0,0,1,240.63,100.38Z"/><path class="cls-3" d="M242.58,72.76"/><path class="cls-2" d="M242.58,79.65a.75.75,0,0,1-.75-.75V74.08H231.69V78.9a.75.75,0,1,1-1.5,0V73.33a.76.76,0,0,1,.75-.75h11.64a.75.75,0,0,1,.75.75V78.9A.74.74,0,0,1,242.58,79.65Z"/><path class="cls-2" d="M244.76,72.25h-16a.77.77,0,0,1-.73-.57.75.75,0,0,1,.38-.84,21.27,21.27,0,0,1,16.71,0,.75.75,0,0,1-.36,1.41Zm-10.28-1.5H239A23.06,23.06,0,0,0,234.48,70.75Z"/><path class="cls-2" d="M228.32,106.92c-4.26,0-8.85-5.19-8.85-16.59C219.47,80,223.22,75,230.94,75a.75.75,0,0,1,0,1.5c-4.28,0-10,1.44-10,13.86,0,5.76,1.76,14.18,6.55,15a3.32,3.32,0,0,1,.41-1.54c-5.13-1.45-5.13-8.1-5.13-14.54,0-7.9,2.36-11.12,8.14-11.12h1.57a.75.75,0,0,1,0,1.5h-1.57c-4.21,0-6.64,1.58-6.64,9.62,0,8.3.4,13.34,5.93,13.34a.75.75,0,0,1,0,1.5,1.07,1.07,0,0,0-.92.33,2.28,2.28,0,0,0-.26,1.59.73.73,0,0,1-.16.62A.74.74,0,0,1,228.32,106.92Z"/><path class="cls-2" d="M245.21,106.92a.75.75,0,0,1-.58-.27.73.73,0,0,1-.16-.62,2.28,2.28,0,0,0-.26-1.59,1.07,1.07,0,0,0-.92-.33.75.75,0,0,1,0-1.5c5.53,0,5.93-5,5.93-13.34,0-8-2.43-9.62-6.64-9.62H241a.75.75,0,0,1,0-1.5h1.57c5.78,0,8.14,3.22,8.14,11.12,0,6.44,0,13.09-5.13,14.54a3.34,3.34,0,0,1,.42,1.54c4.78-.84,6.54-9.26,6.54-15,0-12.42-5.69-13.86-10-13.86a.75.75,0,0,1,0-1.5c7.72,0,11.47,5,11.47,15.36C254.05,101.73,249.46,106.92,245.21,106.92Z"/><path class="cls-3" d="M85.77,209.52"/><path class="cls-2" d="M100.06,248.05H83.12a.76.76,0,0,1-.75-.72c0-.05-.05-1.23,0-3.85s.08-4.12,2.69-4.12H98.12c2.61,0,2.64,1.53,2.69,4.06,0,2.68,0,3.86,0,3.91A.76.76,0,0,1,100.06,248.05Zm0-.75h0Zm-16.21-.75H99.33c0-.61,0-1.61,0-3,0-2.65,0-2.65-1.19-2.65H85.06c-1.14,0-1.14,0-1.19,2.59C83.84,244.92,83.84,245.94,83.85,246.55Z"/><path class="cls-2" d="M86.82,240.86a.74.74,0,0,1-.73-.61,5.15,5.15,0,0,1,1-3.93,5.57,5.57,0,0,1,4.52-1.73,5.57,5.57,0,0,1,4.52,1.73,5.15,5.15,0,0,1,1,3.93.75.75,0,1,1-1.47-.27,3.75,3.75,0,0,0-.67-2.71,5.37,5.37,0,0,0-6.73,0,3.72,3.72,0,0,0-.66,2.7.74.74,0,0,1-.6.87Z"/><path class="cls-2" d="M91.59,233.91a2.81,2.81,0,0,1-2.77-1.34c-1.15-2.24,1.6-6.26,2.16-7a.77.77,0,0,1,.61-.31h0a.77.77,0,0,1,.61.31c.56.78,3.31,4.8,2.16,7A2.81,2.81,0,0,1,91.59,233.91Zm0-6.58c-1,1.61-1.88,3.68-1.43,4.55.18.35.66.53,1.43.53s1.25-.18,1.43-.53C93.47,231,92.58,228.94,91.59,227.33Z"/><path class="cls-2" d="M95.46,237.13a.75.75,0,0,1-.35-1.41l.28-.14c2.66-1.37,4.76-2.44,4.76-6,0-1.95-1.32-3.52-2.6-5s-2.46-2.93-2.46-4.71v-3.41h-7v3.41c0,1.78-1.19,3.2-2.46,4.71s-2.6,3.09-2.6,5c0,3.57,2.1,4.64,4.76,6l.28.14a.76.76,0,0,1,.32,1,.75.75,0,0,1-1,.32l-.27-.14c-2.74-1.4-5.58-2.86-5.58-7.34,0-2.49,1.57-4.36,3-6,1.09-1.3,2.11-2.52,2.11-3.75v-4.16a.76.76,0,0,1,.75-.75h8.5a.76.76,0,0,1,.75.75v4.16c0,1.23,1,2.45,2.11,3.75,1.38,1.64,3,3.51,3,6,0,4.48-2.84,5.94-5.58,7.34l-.27.14A.71.71,0,0,1,95.46,237.13Z"/><path class="cls-3" d="M97.41,209.52"/><path class="cls-2" d="M97.41,216.41a.76.76,0,0,1-.75-.75v-4.82H86.52v4.82a.75.75,0,0,1-1.5,0v-5.57a.74.74,0,0,1,.75-.75H97.41a.74.74,0,0,1,.75.75v5.57A.75.75,0,0,1,97.41,216.41Z"/><path class="cls-2" d="M99.59,209h-16a.76.76,0,0,1-.73-.57.75.75,0,0,1,.38-.84,18.86,18.86,0,0,1,8.35-1.71,18.86,18.86,0,0,1,8.35,1.71.75.75,0,0,1,.38.84A.76.76,0,0,1,99.59,209Zm-10.27-1.5h4.53A22.86,22.86,0,0,0,89.32,207.5Z"/><path class="cls-2" d="M83.14,243.68c-4.25,0-8.84-5.19-8.84-16.59,0-10.34,3.75-15.36,11.47-15.36a.75.75,0,1,1,0,1.5c-4.28,0-10,1.44-10,13.86,0,5.75,1.76,14.17,6.54,15a3.28,3.28,0,0,1,.42-1.54c-5.13-1.46-5.13-8.1-5.13-14.55,0-7.89,2.36-11.11,8.14-11.11h1.57a.75.75,0,0,1,0,1.5H85.77c-4.21,0-6.64,1.57-6.64,9.61,0,8.3.4,13.34,5.93,13.34a.75.75,0,0,1,0,1.5,1,1,0,0,0-.92.34,2.27,2.27,0,0,0-.26,1.59.78.78,0,0,1-.16.62A.75.75,0,0,1,83.14,243.68Z"/><path class="cls-2" d="M100,243.68a.72.72,0,0,1-.57-.28.73.73,0,0,1-.16-.62A2.25,2.25,0,0,0,99,241.2a1,1,0,0,0-.92-.34.75.75,0,0,1,0-1.5c5.53,0,5.93-5,5.93-13.34,0-8-2.43-9.61-6.64-9.61H95.84a.75.75,0,0,1,0-1.5h1.57c5.78,0,8.14,3.22,8.14,11.11,0,6.45,0,13.09-5.13,14.55a3.15,3.15,0,0,1,.41,1.54c4.79-.85,6.55-9.27,6.55-15,0-12.42-5.69-13.86-10-13.86a.75.75,0,0,1,0-1.5c7.72,0,11.47,5,11.47,15.36C108.88,238.49,104.29,243.68,100,243.68Z"/><path class="cls-2" d="M136.2,103.1a10,10,0,0,1-6.3-2.54c-2.4-2.14-3.63-3.89-3.18-7,.54-3.67,3.69-6.37,8.45-7.24,3.48-.63,6.33-3.8,8.66-6.81a.75.75,0,0,1,.77-.27.74.74,0,0,1,.56.59c.09.48.19,1,.28,1.47,1,5.15,2.28,11.56-2,17.5-1.8,2.52-4,3.94-6.4,4.22C136.78,103.08,136.49,103.1,136.2,103.1ZM144,81.74c-2.32,2.81-5.11,5.46-8.57,6.09-4.09.74-6.79,3-7.22,6-.32,2.19.31,3.51,2.69,5.63a8.17,8.17,0,0,0,6,2.12c2-.23,3.8-1.44,5.35-3.6C146.1,92.58,145,86.83,144,81.74Z"/><path class="cls-2" d="M126.92,103.43a.75.75,0,0,1-.64-.36.75.75,0,0,1,.24-1c4.33-2.66,12-9.3,13.71-13a.75.75,0,1,1,1.36.63c-1.9,4.12-9.85,11-14.28,13.68A.71.71,0,0,1,126.92,103.43Z"/><path class="cls-2" d="M133,98.88a.76.76,0,0,1-.75-.67l-.49-4.57a.77.77,0,0,1,.67-.83.76.76,0,0,1,.82.67l.5,4.57a.75.75,0,0,1-.67.82Z"/><path class="cls-2" d="M140.37,96.26h-4.49a.75.75,0,0,1,0-1.5h4.49a.75.75,0,0,1,0,1.5Z"/><path class="cls-2" d="M138.54,93.47a.74.74,0,0,1-.74-.64l-.42-2.69a.75.75,0,0,1,1.49-.23l.41,2.69a.76.76,0,0,1-.63.86Z"/><path class="cls-2" d="M254.72,23.85a10,10,0,0,1-6.29-2.54c-2.41-2.14-3.63-3.89-3.19-7,.54-3.67,3.69-6.37,8.45-7.24,3.48-.63,6.33-3.8,8.66-6.81a.75.75,0,0,1,.77-.27.74.74,0,0,1,.56.59c.09.48.19,1,.29,1.47,1,5.15,2.27,11.56-2,17.5-1.8,2.52-3.95,3.94-6.4,4.22C255.3,23.83,255,23.85,254.72,23.85Zm7.8-21.36C260.2,5.3,257.41,8,254,8.58c-4.08.74-6.78,3-7.22,6-.32,2.19.31,3.51,2.69,5.63a8.19,8.19,0,0,0,6,2.12c2-.23,3.8-1.44,5.35-3.6C264.62,13.34,263.52,7.58,262.52,2.49Z"/><path class="cls-2" d="M245.44,24.18a.75.75,0,0,1-.64-.36.74.74,0,0,1,.25-1c4.32-2.66,12-9.3,13.7-13a.75.75,0,0,1,1.36.63c-1.89,4.12-9.85,11-14.28,13.69A.79.79,0,0,1,245.44,24.18Z"/><path class="cls-2" d="M251.51,19.63a.75.75,0,0,1-.74-.67l-.5-4.57a.75.75,0,0,1,1.5-.16l.49,4.57a.77.77,0,0,1-.67.83Z"/><path class="cls-2" d="M258.9,17h-4.5a.75.75,0,1,1,0-1.5h4.5a.75.75,0,0,1,0,1.5Z"/><path class="cls-2" d="M257.06,14.22a.75.75,0,0,1-.74-.64l-.41-2.69a.73.73,0,0,1,.62-.85.76.76,0,0,1,.86.63l.41,2.68a.76.76,0,0,1-.63.86Z"/><path class="cls-2" d="M120.21,141.85a55.82,55.82,0,0,1-9.21-1.26.75.75,0,1,1,.32-1.46,56,56,0,0,0,8.89,1.22c3.41,0,6.47-.47,6.47-6.12s-3.06-6.13-6.47-6.13a55.57,55.57,0,0,0-8.89,1.23.75.75,0,0,1-.32-1.46,54.35,54.35,0,0,1,9.21-1.27c2.59,0,8,0,8,7.63S122.8,141.85,120.21,141.85Z"/><path class="cls-2" d="M119.3,138.52a57.91,57.91,0,0,1-8.29-1.09.75.75,0,1,1,.3-1.47,57.12,57.12,0,0,0,8,1.06c3,0,4.52-.12,4.52-2.79s-1.47-2.79-4.52-2.79a57.12,57.12,0,0,0-8,1.06A.75.75,0,1,1,111,131a56.45,56.45,0,0,1,8.29-1.09c2.68,0,6,0,6,4.29S122,138.52,119.3,138.52Z"/><path class="cls-2" d="M121.53,135H111.16a.75.75,0,0,1,0-1.5h10.37a.75.75,0,0,1,0,1.5Z"/><path class="cls-2" d="M109,140.84a.76.76,0,0,1-.75-.75V128.37a.75.75,0,0,1,1.5,0v11.72A.75.75,0,0,1,109,140.84Z"/><path class="cls-2" d="M106.62,140.84a.75.75,0,0,1-.75-.75V128.37a.75.75,0,0,1,1.5,0v11.72A.76.76,0,0,1,106.62,140.84Z"/><path class="cls-2" d="M93,141.85c-2.58,0-8,0-8-7.62s5.39-7.63,8-7.63a54.7,54.7,0,0,1,9.22,1.27.75.75,0,1,1-.33,1.46A55.38,55.38,0,0,0,93,128.1c-3.41,0-6.47.47-6.47,6.13s3.06,6.12,6.47,6.12a55.79,55.79,0,0,0,8.89-1.22.75.75,0,1,1,.33,1.46A56.18,56.18,0,0,1,93,141.85Z"/><path class="cls-2" d="M93.94,138.52c-2.69,0-6,0-6-4.29s3.34-4.29,6-4.29a56.46,56.46,0,0,1,8.28,1.09.75.75,0,0,1-.29,1.47,57.6,57.6,0,0,0-8-1.06c-3.06,0-4.53.12-4.53,2.79S90.88,137,93.94,137a57.6,57.6,0,0,0,8-1.06.75.75,0,1,1,.29,1.47A57.92,57.92,0,0,1,93.94,138.52Z"/><path class="cls-2" d="M102.07,135H91.7a.75.75,0,0,1,0-1.5h10.37a.75.75,0,0,1,0,1.5Z"/><path class="cls-2" d="M104.27,140.84a.76.76,0,0,1-.75-.75V128.37a.75.75,0,0,1,1.5,0v11.72A.76.76,0,0,1,104.27,140.84Z"/><path class="cls-2" d="M215,256a55.81,55.81,0,0,1-9.21-1.27.75.75,0,0,1-.57-.89.74.74,0,0,1,.89-.57,55.77,55.77,0,0,0,8.89,1.23c3.41,0,6.48-.47,6.48-6.13s-3.07-6.12-6.48-6.12a56.18,56.18,0,0,0-8.89,1.22.74.74,0,0,1-.89-.57.75.75,0,0,1,.57-.89,56.18,56.18,0,0,1,9.21-1.26c2.59,0,8,0,8,7.62S217.54,256,215,256Z"/><path class="cls-2" d="M214,252.63a56.46,56.46,0,0,1-8.28-1.09.75.75,0,1,1,.29-1.47,57.36,57.36,0,0,0,8,1.06c3.06,0,4.53-.12,4.53-2.79s-1.47-2.79-4.53-2.79a57.36,57.36,0,0,0-8,1.06.75.75,0,0,1-.29-1.47,57.92,57.92,0,0,1,8.28-1.09c2.68,0,6,0,6,4.29S216.72,252.63,214,252.63Z"/><path class="cls-2" d="M216.27,249.09H205.9a.75.75,0,0,1,0-1.5h10.37a.75.75,0,0,1,0,1.5Z"/><path class="cls-2" d="M203.71,255a.75.75,0,0,1-.75-.75V242.48a.75.75,0,0,1,1.5,0V254.2A.76.76,0,0,1,203.71,255Z"/><path class="cls-2" d="M201.36,255a.76.76,0,0,1-.75-.75V242.48a.75.75,0,0,1,1.5,0V254.2A.75.75,0,0,1,201.36,255Z"/><path class="cls-2" d="M187.77,256c-2.59,0-8,0-8-7.63s5.38-7.62,8-7.62A55.82,55.82,0,0,1,197,242a.75.75,0,0,1,.57.89.74.74,0,0,1-.89.57,56.18,56.18,0,0,0-8.89-1.22c-3.41,0-6.47.46-6.47,6.12s3.06,6.13,6.47,6.13a55.57,55.57,0,0,0,8.89-1.23.74.74,0,0,1,.89.57.75.75,0,0,1-.57.89A55.45,55.45,0,0,1,187.77,256Z"/><path class="cls-2" d="M188.68,252.63c-2.68,0-6,0-6-4.29s3.34-4.29,6-4.29a58.13,58.13,0,0,1,8.29,1.09.75.75,0,0,1-.3,1.47,57.12,57.12,0,0,0-8-1.06c-3.05,0-4.52.12-4.52,2.79s1.47,2.79,4.52,2.79a57.12,57.12,0,0,0,8-1.06.75.75,0,0,1,.3,1.47A56.66,56.66,0,0,1,188.68,252.63Z"/><path class="cls-2" d="M196.82,249.09H186.45a.75.75,0,0,1,0-1.5h10.37a.75.75,0,0,1,0,1.5Z"/><path class="cls-2" d="M199,255a.75.75,0,0,1-.75-.75V242.48a.75.75,0,0,1,1.5,0V254.2A.76.76,0,0,1,199,255Z"/><path class="cls-2" d="M29.06,149.58a.73.73,0,0,1-.53-.22l-17.61-17.6a.75.75,0,0,1,0-1.06l5.6-5.59a.74.74,0,0,1,1.06,0l17.6,17.6a.74.74,0,0,1,0,1.06l-5.59,5.59A.74.74,0,0,1,29.06,149.58ZM12.52,131.23l16.54,16.54,4.53-4.53L17.05,126.7Z"/><path class="cls-2" d="M4.5,130.61a.74.74,0,0,1-.53-.22l-2.65-2.65a.75.75,0,0,1,0-1.06L12.5,115.5a.75.75,0,0,1,1.06,0l2.65,2.65a.74.74,0,0,1,0,1.06L5,130.39A.74.74,0,0,1,4.5,130.61Zm-1.59-3.4L4.5,128.8l10.12-10.12L13,117.09Z"/><path class="cls-2" d="M11.46,132h-.15L4.36,130.6a.74.74,0,0,1-.58-.52.75.75,0,0,1,.19-.75l11.18-11.18a.77.77,0,0,1,.75-.19.75.75,0,0,1,.52.58l1.37,6.95a.75.75,0,0,1-.59.88.76.76,0,0,1-.89-.59l-1.09-5.57L6,129.4l5.58,1.1a.75.75,0,0,1-.14,1.48Z"/><path class="cls-2" d="M18.63,135.07a2.25,2.25,0,0,1-2.25-2.26,2.22,2.22,0,0,1,.66-1.59,2.31,2.31,0,0,1,3.19,0,2.26,2.26,0,0,1-1.6,3.85Zm0-3a.75.75,0,0,0-.75.75.77.77,0,0,0,.22.54.79.79,0,0,0,1.07,0,.77.77,0,0,0,.22-.54.75.75,0,0,0-.22-.53h0A.79.79,0,0,0,18.63,132.06Z"/><path class="cls-2" d="M5.8,120.73a.74.74,0,0,1-.53-.22L2.2,117.44a.75.75,0,0,1,1.06-1.06l3.07,3.07a.74.74,0,0,1,0,1.06A.73.73,0,0,1,5.8,120.73Z"/><path class="cls-2" d="M3,123.58a.71.71,0,0,1-.53-.22L.22,121.15a.75.75,0,0,1,1.06-1.06l2.21,2.21a.75.75,0,0,1,0,1.06A.74.74,0,0,1,3,123.58Z"/><path class="cls-2" d="M8.65,117.89a.77.77,0,0,1-.53-.22l-2.21-2.21A.75.75,0,0,1,7,114.4l2.21,2.21a.75.75,0,0,1,0,1.06A.79.79,0,0,1,8.65,117.89Z"/><path class="cls-2" d="M159.5,245a.74.74,0,0,1-.53-.22l-17.6-17.6a.75.75,0,0,1,0-1.06l5.59-5.6a.75.75,0,0,1,1.06,0l17.61,17.61a.75.75,0,0,1,0,1.06l-5.6,5.59A.73.73,0,0,1,159.5,245ZM143,226.61l16.54,16.54,4.54-4.53-16.55-16.54Z"/><path class="cls-2" d="M134.94,226a.74.74,0,0,1-.53-.22l-2.65-2.65a.75.75,0,0,1,0-1.06L143,210.88a.75.75,0,0,1,1.06,0l2.65,2.65a.75.75,0,0,1,0,1.06l-11.19,11.18A.71.71,0,0,1,134.94,226Zm-1.59-3.4,1.59,1.59,10.13-10.12-1.59-1.59Z"/><path class="cls-2" d="M141.9,227.36h-.14l-7-1.37a.75.75,0,0,1-.57-.52.76.76,0,0,1,.18-.75l11.19-11.18a.73.73,0,0,1,.74-.19.74.74,0,0,1,.52.57l1.37,7a.75.75,0,1,1-1.47.29l-1.1-5.58-9.19,9.2,5.57,1.09a.75.75,0,0,1-.14,1.49Z"/><path class="cls-2" d="M149.08,230.44a2.25,2.25,0,1,1,1.59-3.84h0a2.25,2.25,0,0,1-1.59,3.84Zm0-3a.75.75,0,0,0-.54.22.76.76,0,1,0,1.07,0A.74.74,0,0,0,149.08,227.44Z"/><path class="cls-2" d="M136.25,216.11a.71.71,0,0,1-.53-.22l-3.07-3.07a.74.74,0,0,1,0-1.06.75.75,0,0,1,1.06,0l3.07,3.07a.75.75,0,0,1,0,1.06A.74.74,0,0,1,136.25,216.11Z"/><path class="cls-2" d="M133.4,219a.79.79,0,0,1-.53-.22l-2.21-2.21a.75.75,0,0,1,1.06-1.06l2.21,2.21a.75.75,0,0,1,0,1.06A.79.79,0,0,1,133.4,219Z"/><path class="cls-2" d="M139.09,213.27a.79.79,0,0,1-.53-.22l-2.2-2.21a.74.74,0,0,1,0-1.06.75.75,0,0,1,1.06,0l2.2,2.2a.75.75,0,0,1,0,1.07A.77.77,0,0,1,139.09,213.27Z"/><path class="cls-2" d="M183.83,110a3.61,3.61,0,0,1-2.63-1,3.73,3.73,0,0,1-.93-1.59,4.17,4.17,0,0,1-2.22,1.21,3.78,3.78,0,0,1-3.28-1.31,3.29,3.29,0,0,1-1-2.43c0-1.68,1.13-3.53,2.19-4.91-1.84.47-4.23.79-6-.06a3.9,3.9,0,0,1-2.14-2.68,3.63,3.63,0,0,1,.58-3.53,4.59,4.59,0,0,1,3-1.27,4.55,4.55,0,0,1-1.21-2.94A3.15,3.15,0,0,1,171.87,87c2.62-1.71,5.32,0,7.1,1.66a8.24,8.24,0,0,1,.35-4.63A2.79,2.79,0,0,1,181,82.59a3.69,3.69,0,0,1,3.06.19,3.85,3.85,0,0,1,1.5,1.65c1.25-.57,3.71-1.4,5.37,0s-.1,4.92-1.63,7.37c2.56-.89,6.44-1.75,7.72.6a2.61,2.61,0,0,1,.17,2.37A4.81,4.81,0,0,1,194.7,97a4.48,4.48,0,0,1,1.61,2.25,3,3,0,0,1-.53,2.55c-1.58,2.27-5.85.85-8-.07.17,1.92.23,5.31-1.09,7.09a2.81,2.81,0,0,1-1.92,1.19A7.55,7.55,0,0,1,183.83,110Zm-3-5.25a.57.57,0,0,1,.22,0,.74.74,0,0,1,.52.8,3.3,3.3,0,0,0,.68,2.38,2.66,2.66,0,0,0,2.29.47,1.35,1.35,0,0,0,.93-.59c1.21-1.63.88-5.84.65-7.33a.75.75,0,0,1,.3-.72.73.73,0,0,1,.78-.06c2,1,6.33,2.58,7.35,1.12a1.53,1.53,0,0,0,.31-1.31c-.26-1-1.64-1.89-2.15-2.14a.74.74,0,0,1,.13-1.39c.64-.17,2.54-.88,3-1.87a1.12,1.12,0,0,0-.12-1c-.94-1.72-5.86-.08-8.1,1a.76.76,0,0,1-.9-.21.76.76,0,0,1,0-.92c2.18-2.95,4-6.75,3.27-7.4-1.19-1-3.57,0-4.39.53a.75.75,0,0,1-1.12-.47,2.75,2.75,0,0,0-1.13-1.57,2.33,2.33,0,0,0-1.85-.06,1.34,1.34,0,0,0-.79.71c-.84,1.66,0,5.25.45,6.49a.75.75,0,0,1-1.33.66s-3.95-5.66-7.09-3.6a1.72,1.72,0,0,0-.95,1.35c-.05,1.2,1.5,2.66,2,3.08a.75.75,0,0,1-.56,1.34c-.73-.11-2.82-.19-3.66.74a2.26,2.26,0,0,0-.24,2.14,2.44,2.44,0,0,0,1.34,1.71c2.12,1,6.08-.29,7.43-.88a.75.75,0,0,1,.82,1.22c-1,1-3.59,3.9-3.61,6a1.82,1.82,0,0,0,.53,1.35,2.44,2.44,0,0,0,2,.89c1.34-.2,2.33-2,2.34-2A.77.77,0,0,1,180.83,104.79Z"/><path class="cls-2" d="M191.36,112.2h0a.75.75,0,0,1-.71-.78c.28-5.9-2.52-9-4.22-10.39a.75.75,0,0,1-.12-1,.77.77,0,0,1,1.06-.12c1.92,1.53,5.09,5.07,4.78,11.63A.75.75,0,0,1,191.36,112.2Z"/><path class="cls-2" d="M184.72,98.28a.71.71,0,0,1-.41-.13A11.26,11.26,0,0,1,181,93.93a.75.75,0,1,1,1.36-.62,10.11,10.11,0,0,0,2.74,3.59.75.75,0,0,1-.41,1.38Z"/><path class="cls-2" d="M181.17,98a.75.75,0,0,1-.65-1.13c.94-1.6,4-3.33,4.61-3.23a.76.76,0,0,1,.63.56.8.8,0,0,1-.37.88.74.74,0,0,1-.49.14,8.56,8.56,0,0,0-3.08,2.41A.76.76,0,0,1,181.17,98Z"/><path class="cls-2" d="M69.69,33.77a3.41,3.41,0,0,1-3.55-2.55,4.11,4.11,0,0,1-2.23,1.21,3.79,3.79,0,0,1-3.28-1.31,3.23,3.23,0,0,1-1-2.43c0-1.68,1.12-3.53,2.18-4.91-1.84.47-4.23.79-6-.05A3.94,3.94,0,0,1,53.73,21a3.64,3.64,0,0,1,.58-3.53,4.52,4.52,0,0,1,3-1.26,4.63,4.63,0,0,1-1.21-2.94,3.18,3.18,0,0,1,1.63-2.56c2.61-1.71,5.32,0,7.11,1.66a8.16,8.16,0,0,1,.34-4.63,2.77,2.77,0,0,1,1.67-1.45,3.73,3.73,0,0,1,3.06.18,4,4,0,0,1,1.51,1.65c1.24-.57,3.7-1.39,5.36,0s-.09,4.92-1.63,7.37c2.57-.89,6.44-1.74,7.72.6A2.61,2.61,0,0,1,83,18.52a4.84,4.84,0,0,1-2.48,2.18,4.49,4.49,0,0,1,1.61,2.24,3,3,0,0,1-.53,2.55c-1.58,2.27-5.85.85-8-.07.17,1.92.24,5.31-1.09,7.1a2.81,2.81,0,0,1-1.92,1.18A6,6,0,0,1,69.69,33.77Zm-3-5.25a.57.57,0,0,1,.22,0,.73.73,0,0,1,.52.8,3.29,3.29,0,0,0,.68,2.38,2.65,2.65,0,0,0,2.29.48,1.4,1.4,0,0,0,.93-.6c1.21-1.64.88-5.84.65-7.32a.77.77,0,0,1,.3-.73.78.78,0,0,1,.78-.06c2,1,6.33,2.58,7.35,1.12a1.53,1.53,0,0,0,.31-1.31c-.27-1-1.68-1.9-2.15-2.13a.76.76,0,0,1-.42-.75.75.75,0,0,1,.56-.65c.63-.17,2.53-.87,3-1.87a1.12,1.12,0,0,0-.12-1.05c-.93-1.71-5.86-.08-8.09,1a.76.76,0,0,1-.9-.2.75.75,0,0,1,0-.92c2.18-3,4-6.76,3.28-7.41-1.2-1-3.58,0-4.4.54a.74.74,0,0,1-.68,0,.75.75,0,0,1-.44-.51,2.73,2.73,0,0,0-1.13-1.58,2.33,2.33,0,0,0-1.85-.06,1.34,1.34,0,0,0-.79.71c-.84,1.66,0,5.25.46,6.5a.75.75,0,0,1-1.33.66c0-.06-4-5.66-7.1-3.61a1.74,1.74,0,0,0-.95,1.35c-.05,1.21,1.5,2.67,2,3.08a.76.76,0,0,1,.23.89.75.75,0,0,1-.8.45c-.73-.11-2.82-.19-3.66.74a2.28,2.28,0,0,0-.24,2.15,2.44,2.44,0,0,0,1.34,1.7c2.12,1,6.09-.29,7.43-.88a.75.75,0,0,1,.83,1.23c-1,1-3.59,3.9-3.61,6a1.76,1.76,0,0,0,.52,1.35,2.38,2.38,0,0,0,2,.89c1.35-.2,2.34-2,2.35-2A.75.75,0,0,1,66.69,28.52Z"/><path class="cls-2" d="M77.22,35.94h0a.76.76,0,0,1-.71-.79c.28-5.89-2.52-9-4.21-10.38a.75.75,0,0,1,.93-1.18c1.92,1.53,5.09,5.07,4.78,11.63A.76.76,0,0,1,77.22,35.94Z"/><path class="cls-2" d="M70.59,22a.79.79,0,0,1-.42-.12,11.34,11.34,0,0,1-3.28-4.23.75.75,0,1,1,1.37-.61A9.93,9.93,0,0,0,71,20.63a.75.75,0,0,1,.21,1A.74.74,0,0,1,70.59,22Z"/><path class="cls-2" d="M67,21.77a.75.75,0,0,1-.65-1.13c1-1.59,4-3.35,4.61-3.23a.77.77,0,0,1,.64.57.81.81,0,0,1-.38.87.73.73,0,0,1-.49.15,8.41,8.41,0,0,0-3.08,2.4A.75.75,0,0,1,67,21.77Z"/><path class="cls-2" d="M55.21,114.59a5.36,5.36,0,1,1,5.35-5.36A5.37,5.37,0,0,1,55.21,114.59Zm0-9.21a3.86,3.86,0,1,0,3.85,3.85A3.86,3.86,0,0,0,55.21,105.38Z"/><path class="cls-2" d="M217.5,22.48a5.36,5.36,0,1,1,5.35-5.36A5.36,5.36,0,0,1,217.5,22.48Zm0-9.21a3.86,3.86,0,1,0,3.85,3.85A3.86,3.86,0,0,0,217.5,13.27Z"/><path class="cls-2" d="M244.5,232.25a5.35,5.35,0,1,1,5.35-5.35A5.36,5.36,0,0,1,244.5,232.25Zm0-9.2a3.85,3.85,0,1,0,3.85,3.85A3.85,3.85,0,0,0,244.5,223.05Z"/><path class="cls-2" d="M100.5,104a1.44,1.44,0,1,1,1.44-1.43A1.43,1.43,0,0,1,100.5,104Zm0-1.5-.06.07a.06.06,0,0,0,.06.06Z"/><path class="cls-2" d="M28.24,11.61a1.44,1.44,0,1,1,1.43-1.43A1.44,1.44,0,0,1,28.24,11.61Zm0-1.5-.07.07a.07.07,0,0,0,.07.06Z"/><path class="cls-2" d="M107.26,184.76a1.44,1.44,0,1,1,1.43-1.43A1.43,1.43,0,0,1,107.26,184.76Zm0-1.5-.07.07a.07.07,0,0,0,.07.06Z"/><path class="cls-2" d="M228.48,49a1.44,1.44,0,1,1,1.44-1.43A1.43,1.43,0,0,1,228.48,49Zm0-1.5-.06.07a.06.06,0,0,0,.06.06Z"/><path class="cls-2" d="M14.27,180.81a1.44,1.44,0,0,1,0-2.87,1.44,1.44,0,1,1,0,2.87Zm0-1.5-.06.07a.06.06,0,0,0,.06.06Z"/><path class="cls-2" d="M219.45,142.7a1.43,1.43,0,1,1,1.43-1.43A1.44,1.44,0,0,1,219.45,142.7Zm0-1.5-.07.07a.07.07,0,0,0,.07.07Z"/></pattern></defs><title>pattern-white</title><g id="Layer_2" data-name="Layer 2"><g id="Layer_1-2" data-name="Layer 1"><rect class="cls-4" width="264.97" height="255.97"/></g></g></svg>